<svg width="500" height="500" viewBox="0 0 500 500" fill="none" xmlns="http://www.w3.org/2000/svg">
<g clip-path="url(#clip0_2359_3456)">
<path d="M250 468.148C367.785 468.148 463.268 372.664 463.268 254.88C463.268 137.095 367.785 41.6118 250 41.6118C132.216 41.6118 36.7324 137.095 36.7324 254.88C36.7324 372.664 132.216 468.148 250 468.148Z" fill="#CFD5E9"/>
<path d="M31.3398 425.519C31.3398 425.519 38.624 444.072 56.9787 460.082L69.9931 444.925L64.4335 465.958C71.684 471.101 80.284 475.635 90.3885 478.718C96.4453 480.566 102.055 481.756 107.25 482.429L119.045 461.349L116.283 483.107C137.996 483.516 151.277 474.578 159.337 469.467L143.3 451.142L167.021 464.772C175.611 458.245 184.61 444.207 184.61 444.207C184.61 444.207 170.596 425.835 149.87 411.442L139.632 424.863L143.849 407.503C133.049 400.88 120.789 395.732 107.935 394.732C103.806 394.411 99.7418 394.464 95.7647 394.812L89.0052 416.963L89.1337 395.668C78.2486 397.537 68.2115 401.466 59.66 405.878L57.8068 423.379L53.8887 409.049C40.0484 417.109 31.3398 425.519 31.3398 425.519Z" fill="#7A86B2"/>
<path opacity="0.5055" d="M31.3398 425.519L31.3599 425.564C35.1831 425.943 143.513 436.704 184.352 443.888C183.656 442.983 170.065 425.465 149.87 411.441L139.632 424.862L143.85 407.502C133.05 400.879 120.79 395.731 107.936 394.731C103.807 394.41 99.7428 394.463 95.7657 394.811L89.0073 416.962L89.1358 395.668C78.2507 397.536 68.2136 401.465 59.6621 405.877L57.8089 423.378L53.8908 409.048C40.0494 417.109 31.3409 425.518 31.3409 425.518L31.3398 425.519Z" fill="#3D466A"/>
<path d="M491.701 432.591C491.701 432.591 484.417 451.143 466.062 467.153L453.048 451.996L458.607 473.03C451.357 478.171 442.757 482.706 432.653 485.789C426.596 487.637 420.986 488.827 415.791 489.501L403.996 468.42L406.758 490.178C385.045 490.587 371.764 481.65 363.704 476.538L379.741 458.214L356.02 471.843C347.43 465.317 338.431 451.278 338.431 451.278C338.431 451.278 352.445 432.907 373.171 418.513L383.409 431.934L379.192 414.575C389.992 407.953 402.252 402.804 415.106 401.804C419.235 401.483 423.299 401.537 427.276 401.884L434.036 424.035L433.907 402.741C444.792 404.61 454.829 408.538 463.381 412.951L465.234 430.451L469.152 416.122C482.993 424.18 491.701 432.591 491.701 432.591Z" fill="#7A86B2"/>
<path opacity="0.5055" d="M491.701 432.591L491.681 432.635C487.858 433.014 379.528 443.775 338.689 450.959C339.385 450.054 352.976 432.536 373.171 418.512L383.409 431.933L379.191 414.573C389.991 407.951 402.251 402.802 415.105 401.802C419.234 401.481 423.298 401.535 427.275 401.882L434.034 424.033L433.905 402.739C444.79 404.608 454.827 408.536 463.379 412.949L465.232 430.448L469.15 416.119C482.992 424.179 491.701 432.591 491.701 432.591Z" fill="#3D466A"/>
<path d="M125.231 267.643C125.231 267.643 118.629 282.828 119.901 309.642L136.242 318.776L120.782 320.298C121.972 330.449 124.295 341.907 128.333 354.533C130.754 362.102 133.299 368.916 135.906 375.068L154.994 380.609L140.727 385.579C153.023 410.392 165.896 422.147 173.527 429.398L174.942 404.356L180.696 436.376C189.458 443.701 202.829 448.693 202.829 448.693C202.829 448.693 205.44 425.931 201.858 397.026L188.13 390.398L200.677 388.72C198.3 373.987 194.221 358.142 187.382 343.171C185.185 338.361 182.808 333.764 180.31 329.378L163.506 329.954L175.983 322.166C168.61 310.499 160.527 300.562 153.021 292.493L141.759 296.909L147.843 287.119C135.156 274.401 125.231 267.643 125.231 267.643Z" fill="#7A86B2"/>
<path opacity="0.5055" d="M125.231 267.643C125.231 267.643 125.215 267.679 125.215 267.682C127.202 272.165 183.472 399.219 202.864 448.282C202.989 447.154 205.347 425.19 201.856 397.027L188.129 390.399L200.675 388.721C198.299 373.988 194.219 358.143 187.382 343.172C185.185 338.362 182.807 333.765 180.31 329.379L163.506 329.955L175.983 322.167C168.61 310.5 160.527 300.564 153.021 292.494L141.759 296.91L147.843 287.12C135.156 274.402 125.231 267.643 125.231 267.643Z" fill="#3D466A"/>
<path d="M397.81 274.714C397.81 274.714 404.412 289.9 403.14 316.713L386.799 325.847L402.259 327.37C401.069 337.52 398.746 348.979 394.708 361.604C392.287 369.173 389.742 375.987 387.135 382.139L368.047 387.68L382.314 392.651C370.018 417.464 357.145 429.219 349.514 436.471L348.099 411.428L342.345 443.448C333.583 450.774 320.212 455.765 320.212 455.765C320.212 455.765 317.601 433.002 321.183 404.099L334.911 397.47L322.364 395.793C324.741 381.059 328.82 365.215 335.659 350.243C337.856 345.434 340.233 340.836 342.731 336.45L359.535 337.026L347.058 329.239C354.431 317.572 362.514 307.635 370.02 299.566L381.282 303.981L375.198 294.192C387.885 281.472 397.81 274.714 397.81 274.714Z" fill="#7A86B2"/>
<path opacity="0.5055" d="M397.81 274.714C397.81 274.714 397.826 274.751 397.826 274.753C395.839 279.237 339.569 406.29 320.177 455.353C320.052 454.225 317.694 432.261 321.185 404.099L334.912 397.47L322.366 395.793C324.742 381.059 328.822 365.215 335.659 350.243C337.856 345.434 340.234 340.836 342.731 336.45L359.535 337.026L347.058 329.239C354.431 317.572 362.514 307.635 370.02 299.566L381.282 303.981L375.198 294.192C387.885 281.473 397.81 274.714 397.81 274.714Z" fill="#3D466A"/>
<path d="M38.9377 305.491C19.029 320.609 17.8606 348.874 40.0966 366.78L55.6689 352.183L47.5556 371.859C48.7767 372.562 50.0409 373.244 51.3599 373.894C67.0007 381.6 83.8162 388.29 99.4665 395.127L109.503 382.014L105.394 397.756C121.924 405.2 136.745 412.988 146.853 422.598C167.518 442.244 174.253 448.062 184.87 446.515C195.488 444.969 192.951 435.248 186.094 419.235C186.094 419.235 182.329 407.999 174.16 392.093L159.714 394.476L171.427 386.916C164.039 373.27 153.712 357.007 140.068 341.599C133.459 334.136 126.462 327.461 119.3 321.684L103.434 340.915L110.691 315.225C85.4261 297.726 59.194 291.956 41.2249 303.87C40.4358 304.392 39.6741 304.932 38.9377 305.491Z" fill="#7A86B2"/>
<path d="M190.382 457.17C190.382 457.17 163.204 407.713 133.396 380.491C103.588 353.269 72.0319 335.597 59.0745 328.476C46.117 321.355 33.582 317.704 33.582 317.704C33.582 317.704 69.2853 326.122 113.322 360.313C157.359 394.503 194.708 453.171 194.708 453.171L190.382 457.17Z" fill="#313A5C" fill-opacity="0.915"/>
<path d="M176.205 428.803C176.205 428.803 170.632 426.423 165.949 426.499C161.266 426.577 156.536 430.279 156.536 430.279C156.536 430.279 161.528 426.483 164.674 425.266C167.82 424.049 170.884 423.633 170.884 423.633L163.305 413.056C163.305 413.056 159.376 411.712 154.334 412.758C149.293 413.805 145.383 418.414 145.383 418.414C145.383 418.414 148.516 413.608 151.78 411.894C155.043 410.18 160.064 409.55 160.064 409.55L150.506 397.375C150.506 397.375 145.851 397.047 140.301 400.262C134.751 403.478 132.102 408.227 132.102 408.227C132.102 408.227 135.524 402.079 139.279 399.319C143.035 396.559 148.945 395.27 148.945 395.27L138.282 384.344C138.282 384.344 133.309 384.923 127.227 388.711C121.145 392.5 117.136 399.614 117.136 399.614C117.136 399.614 120.005 392.566 124.753 388.071C129.5 383.575 135.492 381.509 135.492 381.509C135.492 381.509 122.682 370.137 117.46 366.439C112.237 362.741 108.433 359.019 108.433 359.019C108.433 359.019 103.297 362.46 95.31 368.888C87.3232 375.316 83.7348 384.602 83.7348 384.602C83.7348 384.602 86.9407 375.389 91.2539 370.385C95.5671 365.381 106.67 357.648 106.67 357.648C106.67 357.648 95.9548 349.865 92.6783 347.479C89.4029 345.093 85.2466 342.839 85.2466 342.839C85.2466 342.839 78.5451 345.218 71.7277 352.367C64.9113 359.517 59.6215 375.542 59.6215 375.542C59.6215 375.542 63.5933 360.701 68.7145 353.343C73.8358 345.985 82.0586 340.898 82.0586 340.898C82.0586 340.898 72.029 334.31 68.7451 332.449C65.4612 330.589 61.7896 329.192 61.7896 329.192C61.7896 329.192 54.5108 334.908 47.7597 341.701C41.0086 348.494 36.3594 361.663 36.3594 361.663C36.3594 361.663 40.6104 349.131 45.5315 342.135C50.4515 335.14 59.5161 328.212 59.5161 328.212C59.5161 328.212 60.3221 319.578 62.9243 311.241C65.5276 302.905 69.4626 297.979 69.4626 297.979C69.4626 297.979 61.2092 315.628 61.2934 322.32C61.3767 329.012 62.3322 328.935 62.3322 328.935L82.5285 340.127C82.5285 340.127 84.1204 331.282 88.1723 321.962C92.2242 312.643 97.5035 309.228 97.5035 309.228C97.5035 309.228 90.2668 319.644 87.9837 329.551C85.7007 339.457 86.0547 342.287 86.0547 342.287L107.101 356.634C107.101 356.634 107.931 352.327 112.818 343.256C117.704 334.185 127.117 328.655 127.117 328.655C127.117 328.655 120.204 334.113 114.982 342.736C109.759 351.359 109.191 357.625 109.191 357.625L135.227 380.351C135.227 380.351 138.604 374.128 144.088 367.884C149.571 361.639 154.322 360.999 154.322 360.999C154.322 360.999 149.714 362.973 144.894 369.24C140.074 375.506 138.147 383.32 138.147 383.32L148.738 394.887C148.738 394.887 153.221 388.149 158.19 383.763C163.16 379.377 165.957 379.467 165.957 379.467C165.957 379.467 162.964 380.026 156.785 387.138C150.605 394.251 150.158 396.641 150.158 396.641L160.491 408.811C160.491 408.811 162.535 404.909 166.996 401.502C171.457 398.095 176.16 398.231 176.16 398.231C176.16 398.231 172.3 398.054 167.873 402.207C163.446 406.36 162.884 411.49 162.884 411.49L171.39 422.235C171.39 422.235 173.929 418.481 177.188 415.803C180.445 413.125 182.77 413.028 182.77 413.028C182.77 413.028 178.704 415.864 176.019 419.262C173.335 422.659 173.005 425.276 173.005 425.276L176.205 428.803Z" fill="#313A5C" fill-opacity="0.915"/>
<path opacity="0.5055" d="M38.9383 305.491C35.5638 308.053 32.7424 311 30.4668 314.203C49.0796 322.107 87.8519 340.408 117.861 366.961C143.961 390.055 171.127 424.14 187.43 445.861C194.949 443.109 192.322 433.779 186.093 419.235C186.093 419.235 182.329 407.999 174.16 392.093L159.714 394.476L171.427 386.916C164.039 373.27 153.712 357.007 140.067 341.599C133.458 334.136 126.462 327.461 119.3 321.684L103.434 340.915L110.69 315.225C85.4256 297.726 59.1936 291.956 41.2245 303.87C40.4364 304.392 39.6747 304.932 38.9383 305.491Z" fill="#3D466A"/>
<path d="M484.103 312.562C504.012 327.681 505.18 355.945 482.944 373.851L467.372 359.254L475.485 378.93C474.264 379.634 473 380.315 471.681 380.965C456.04 388.671 439.225 395.361 423.574 402.198L413.538 389.085L417.647 404.827C401.117 412.271 386.297 420.059 376.188 429.669C355.523 449.316 348.788 455.133 338.171 453.587C327.553 452.04 330.09 442.319 336.947 426.306C336.947 426.306 340.712 415.071 348.881 399.164L363.327 401.546L351.614 393.987C359.001 380.342 369.329 364.078 382.973 348.67C389.582 341.207 396.579 334.533 403.741 328.755L419.607 347.986L412.351 322.296C437.616 304.798 463.848 299.028 481.817 310.941C482.605 311.463 483.367 312.003 484.103 312.562Z" fill="#7A86B2"/>
<path d="M332.659 464.24C332.659 464.24 359.837 414.784 389.645 387.562C419.453 360.339 451.009 342.667 463.967 335.546C476.924 328.425 489.459 324.774 489.459 324.774C489.459 324.774 453.756 333.193 409.719 367.383C365.681 401.574 328.333 460.241 328.333 460.241L332.659 464.24Z" fill="#313A5C" fill-opacity="0.915"/>
<path d="M346.837 435.874C346.837 435.874 352.41 433.493 357.093 433.57C361.776 433.648 366.506 437.35 366.506 437.35C366.506 437.35 361.514 433.554 358.368 432.337C355.221 431.12 352.158 430.704 352.158 430.704L359.737 420.127C359.737 420.127 363.666 418.783 368.708 419.829C373.749 420.876 377.66 425.484 377.66 425.484C377.66 425.484 374.526 420.679 371.262 418.965C367.999 417.251 362.978 416.621 362.978 416.621L372.536 404.446C372.536 404.446 377.191 404.118 382.741 407.333C388.29 410.548 390.94 415.298 390.94 415.298C390.94 415.298 387.519 409.15 383.763 406.39C380.007 403.63 374.098 402.34 374.098 402.34L384.759 391.414C384.759 391.414 389.732 391.993 395.814 395.781C401.897 399.57 405.905 406.684 405.905 406.684C405.905 406.684 403.036 399.636 398.288 395.141C393.541 390.645 387.549 388.579 387.549 388.579C387.549 388.579 400.359 377.207 405.581 373.508C410.804 369.809 414.608 366.088 414.608 366.088C414.608 366.088 419.744 369.529 427.731 375.957C435.718 382.385 439.306 391.671 439.306 391.671C439.306 391.671 436.1 382.458 431.787 377.454C427.474 372.449 416.371 364.716 416.371 364.716C416.371 364.716 427.087 356.934 430.363 354.548C433.638 352.161 437.794 349.908 437.794 349.908C437.794 349.908 444.496 352.287 451.313 359.436C458.13 366.585 463.42 382.611 463.42 382.611C463.42 382.611 459.448 367.77 454.326 360.412C449.205 353.054 440.982 347.967 440.982 347.967C440.982 347.967 451.012 341.379 454.296 339.518C457.58 337.657 461.251 336.26 461.251 336.26C461.251 336.26 468.53 341.977 475.281 348.77C482.032 355.563 486.682 368.732 486.682 368.732C486.682 368.732 482.431 356.2 477.51 349.204C472.59 342.209 463.525 335.281 463.525 335.281C463.525 335.281 462.719 326.647 460.117 318.31C457.513 309.974 453.578 305.048 453.578 305.048C453.578 305.048 461.832 322.697 461.748 329.39C461.664 336.082 460.709 336.003 460.709 336.003L440.512 347.197C440.512 347.197 438.921 338.352 434.869 329.032C430.817 319.713 425.538 316.298 425.538 316.298C425.538 316.298 432.774 326.714 435.057 336.621C437.34 346.527 436.986 349.356 436.986 349.356L415.94 363.703C415.94 363.703 415.11 359.396 410.223 350.325C405.337 341.254 395.924 335.724 395.924 335.724C395.924 335.724 402.836 341.182 408.059 349.805C413.282 358.428 413.85 364.694 413.85 364.694L387.814 387.42C387.814 387.42 384.437 381.197 378.953 374.953C373.47 368.708 368.719 368.068 368.719 368.068C368.719 368.068 373.327 370.042 378.147 376.309C382.967 382.575 384.894 390.389 384.894 390.389L374.303 401.956C374.303 401.956 369.819 395.217 364.851 390.832C359.881 386.445 357.084 386.536 357.084 386.536C357.084 386.536 360.077 387.095 366.256 394.207C372.436 401.32 372.883 403.71 372.883 403.71L362.55 415.879C362.55 415.879 360.506 411.978 356.045 408.571C351.584 405.164 346.882 405.3 346.882 405.3C346.882 405.3 350.741 405.123 355.168 409.276C359.595 413.429 360.157 418.559 360.157 418.559L351.651 429.302C351.651 429.302 349.112 425.549 345.853 422.871C342.596 420.193 340.272 420.096 340.272 420.096C340.272 420.096 344.338 422.932 347.023 426.329C349.707 429.727 350.037 432.344 350.037 432.344L346.837 435.874Z" fill="#313A5C" fill-opacity="0.915"/>
<path opacity="0.5055" d="M484.103 312.562C487.477 315.125 490.299 318.071 492.574 321.274C473.961 329.179 435.189 347.48 405.18 374.032C379.08 397.127 351.914 431.212 335.611 452.932C328.092 450.181 330.719 440.85 336.948 426.306C336.948 426.306 340.712 415.071 348.881 399.164L363.327 401.546L351.614 393.987C359.003 380.342 369.329 364.078 382.974 348.67C389.583 341.207 396.579 334.533 403.741 328.755L419.607 347.986L412.351 322.296C437.615 304.798 463.847 299.028 481.817 310.941C482.605 311.463 483.366 312.003 484.103 312.562Z" fill="#3D466A"/>
<path opacity="0.5055" d="M408.218 87.102C403.688 86.628 401.618 91.816 403.821 95.463C405.426 98.12 408.373 100.087 410.438 102.379C412.686 104.874 414.123 108.621 416.775 110.604C430.31 120.726 424.611 82.457 408.218 87.102Z" fill="#CFD5E9"/>
<path opacity="0.5055" d="M447.578 130.652C436.048 135.711 446.206 149.254 450.057 156.588C454.14 164.365 455.413 172.551 458.053 180.797C460.461 188.316 470.041 204.18 477.645 191.495C487.988 174.239 463.837 119.748 447.578 130.652Z" fill="#CFD5E9"/>
<path opacity="0.5055" d="M475.538 214.05C473.271 214.969 471.2 215.662 469.503 217.522C463.029 224.617 474.973 238.336 483.534 233.535C495.877 226.615 486.307 212.964 475.538 214.05Z" fill="#CFD5E9"/>
<path opacity="0.5055" d="M71.9604 125.971C79.0104 113.741 88.1804 103.279 99.0744 94.2637C110.206 85.0527 129.156 76.2387 135.585 62.4507C141.414 49.9497 125.962 45.6837 116.661 47.5047C108.862 49.0317 100.229 54.7777 94.1594 59.7157C78.2154 72.6877 58.0054 92.7997 54.4804 114.274C53.2764 121.605 55.5564 129.171 64.1584 128.784C67.1674 128.648 69.2334 126.539 71.9604 125.971Z" fill="#CFD5E9"/>
<path opacity="0.5055" d="M50.0887 156.002C45.9557 162.013 44.0197 169.086 41.6397 175.876C39.7947 181.139 37.4707 190.388 31.8327 193.17C22.8067 197.622 19.0037 182.981 20.7327 177.516C23.9197 167.442 33.0627 153.788 42.1567 148.03C45.8897 145.667 52.9867 144.764 52.1787 151.182C51.9537 152.978 50.4227 154.214 50.0887 156.002Z" fill="#CFD5E9"/>
<path opacity="0.5055" d="M24.4865 253.223C21.9685 265.584 25.7085 277.055 28.8185 288.858C29.6505 292.017 30.7955 296.292 30.0685 299.576C29.4085 302.561 25.0995 305.347 23.1065 307.626C19.9975 311.182 17.6335 320.973 11.4035 315.909C9.01246 313.965 6.94146 311.791 6.31646 308.673C5.10046 302.602 11.0335 299.056 11.2525 293.455C11.7835 279.841 7.28146 265.708 12.8045 252.427C16.7405 242.963 22.2385 246.94 24.4865 253.223Z" fill="#CFD5E9"/>
<path opacity="0.5055" d="M469.059 261.193C470.604 269.455 469.283 278.064 468.197 286.372C465.751 305.088 486.798 311.325 490.009 292.23C492.761 275.864 474.007 236.094 469.059 261.193Z" fill="#CFD5E9"/>
<path d="M224.352 302.673C224.352 302.673 226.738 318.545 228.207 325.163C229.675 331.781 232.226 340.97 232.878 344.063C233.531 347.157 236.247 385.517 237.41 392.795C238.574 400.074 237.797 403.507 237.797 403.507C237.797 403.507 241.816 403.82 246.344 403.049C250.873 402.278 252.321 399.396 252.321 399.396C252.321 399.396 252.796 390.275 253.387 372.164C253.977 354.054 254.57 337.394 254.427 331.528C254.283 325.663 252.162 324.331 252.223 319.173C252.284 314.014 250.673 294.738 250.673 294.738L224.352 302.673Z" fill="#F5AC83"/>
<path d="M250.75 295.682L243.574 296.874L224.352 302.673C224.352 302.673 225.165 308.059 226.13 313.855C236.719 312.817 247.036 305.782 251.288 302.544C251.021 298.994 250.828 296.632 250.75 295.682Z" fill="#E27E5D"/>
<path d="M238.304 236.825C241.12 237.806 242.568 242.543 243.547 245.71C244.526 248.876 256.051 297.077 256.051 297.077C256.051 297.077 249.666 303.309 235.449 305.181C221.231 307.054 215.683 301.776 215.683 301.776C215.683 301.776 211.788 278.947 216.867 266.702C221.945 254.458 238.304 236.825 238.304 236.825Z" fill="#1570EF"/>
<path d="M237.797 403.506C237.797 403.506 238.041 410.687 239.326 415.783C240.611 420.878 242.793 423.861 244.374 425.279C245.955 426.697 247.698 427.175 248.586 428.478C249.474 429.781 251.064 432.356 251.064 432.356C251.064 432.356 256.979 430.896 258.866 427.651C260.753 424.406 261.467 419.885 261.467 419.885C261.467 419.885 258.723 412.656 257.021 409.458C255.318 406.259 252.32 399.394 252.32 399.394C252.32 399.394 247.342 399.383 243.894 400.508C240.448 401.633 237.797 403.506 237.797 403.506Z" fill="#F5AC83"/>
<path d="M261.468 419.887C261.468 419.887 263.936 428.435 264.049 430.188C264.162 431.941 257.512 435.521 256.318 435.888C255.124 436.255 250.973 434.456 247.588 433.947C244.201 433.438 242.642 432.111 244.151 429.789C245.66 427.467 250.046 427.614 252.197 427.582C254.349 427.55 257.032 425.131 257.032 425.131C257.032 425.131 255.288 422.554 258.378 421.221C261.468 419.887 261.468 419.887 261.468 419.887Z" fill="#F5AC83"/>
<path d="M260.632 422.065C260.632 422.065 261.294 432.131 261.122 433.915C260.948 435.7 257.787 437.954 255.625 438.464C253.462 438.973 249.526 439.395 248.271 438.89C247.016 438.386 244.314 437.793 241.917 436.912C239.52 436.031 239.112 433.263 240.479 432.433C241.847 431.602 244.375 431.446 246.017 432.047C247.659 432.649 251.066 432.357 251.066 432.357C251.066 432.357 251.515 426.962 252.127 425.205C252.739 423.447 253.401 423.218 255.431 422.722C257.46 422.225 260.632 422.065 260.632 422.065Z" fill="#F5AC83"/>
<path d="M258.682 423.552L259.142 424.614C259.142 424.614 258.897 437.089 258.224 438.571C257.551 440.054 253.532 442.064 252.41 442.395C251.288 442.725 248.229 444.681 246.576 446.182C244.924 447.683 244.7 450.125 243.446 449.739C242.191 449.354 240.05 447.513 241.038 443.827C242.028 440.141 248.678 437.36 249.147 436.971C249.616 436.581 251.064 432.359 251.064 432.359L250.137 426.731C250.137 426.731 250.024 425.726 252.716 424.496C255.409 423.264 258.682 423.552 258.682 423.552Z" fill="#F5AC83"/>
<path d="M254.39 417.696C254.39 417.696 256.39 424.37 256.981 425.59C257.573 426.811 257.185 432.961 256.828 434.434C256.472 435.908 256.103 438.754 256.574 440.382C257.043 442.012 253.769 441.906 252.106 440.993C250.443 440.08 249.852 437.202 249.75 436.142C249.648 435.082 249.24 431.07 249.047 429.537C248.853 428.004 244.366 424.337 242.866 420.28C241.366 416.223 240.011 411.482 243.039 409.274C246.068 407.066 249.791 409.59 251.198 411.06C252.606 412.529 254.39 417.696 254.39 417.696Z" fill="#F5AC83"/>
<path d="M234.981 258.831C235.127 259.043 230.642 261.774 226.453 265.811C226.281 265.976 226.113 266.145 225.946 266.317C221.747 270.649 220.936 276.439 220.667 276.422C220.359 276.402 220.22 270.737 225.209 265.603C225.386 265.423 225.564 265.245 225.746 265.071C230.134 260.911 234.835 258.619 234.981 258.831Z" fill="#14515B"/>
<path d="M135.735 321.492C133.186 328.257 129.656 335.95 127.596 342.32C125.536 348.691 124.965 350.793 124.965 350.793C124.965 350.793 99.9616 414.523 95.4131 437.086C90.8645 459.649 89.2534 472.6 91.0885 478.044C92.9248 483.487 123.824 520.284 123.824 520.284C123.824 520.284 132.473 519.807 141.937 515.951C151.401 512.095 154.706 506.386 154.706 506.386C154.706 506.386 148.342 489.386 145.18 482.428C142.018 475.471 139.57 471.763 139.57 471.763L172.247 389.528L172.603 368.782L162.2 364.349L162.853 330.028L135.735 321.492Z" fill="#702D62"/>
<path d="M162.285 359.945L160.099 363.974L114.021 466.948L141.615 515.005L143.998 512.772L116.609 467.849L163.715 364.992L162.203 364.348L162.285 359.945Z" fill="#511344"/>
<path d="M207.28 321.147C207.28 321.147 221.314 328.849 228.433 349.833C235.552 370.816 225.343 422.005 223.67 428.101C221.998 434.196 208.584 498.599 208.258 500.784C207.932 502.969 208.197 505.916 208.197 505.916C208.197 505.916 198.223 509.678 188.514 508.302C178.805 506.925 171.156 502.546 171.156 502.546C171.156 502.546 169.503 488.217 170.381 478.699C171.258 469.18 170.908 389.994 170.908 389.994L171.649 368.934L160.124 364.565L159.043 329.619L207.28 321.147Z" fill="#803670"/>
<path d="M197.292 326.426C197.292 326.426 209.862 328.771 213.421 345.985C216.98 363.199 195.494 506.859 195.494 506.859L200.798 506.502C200.798 506.502 219.884 370.031 215.987 349.053C212.09 328.076 199.476 325.651 199.476 325.651L197.292 326.426Z" fill="#511344"/>
<path d="M194.529 327.962C194.529 327.962 194.813 338.033 199.477 342.838C204.14 347.644 213.419 345.984 213.419 345.984L212.278 343.495C212.278 343.495 206.582 345.766 200.718 340.998C194.855 336.228 197.29 326.425 197.29 326.425L194.529 327.962Z" fill="#511344"/>
<path d="M170.148 500.414C170.148 500.414 178.837 504.995 191.585 504.866C204.334 504.737 209.536 501.001 211.779 503.067C214.022 505.132 213.9 507.509 210.616 508.362C207.331 509.216 202.498 511.015 188.912 510.088C175.327 509.16 170.023 506.131 167.392 503.874C164.762 501.617 166.802 499.514 170.148 500.414Z" fill="#196F6A"/>
<path d="M214.97 121.638C214.97 121.638 214.481 114.505 209.197 109.126C203.914 103.747 198.895 104.702 185.821 102.305C172.746 99.9084 163.649 96.9087 157.529 99.9004C151.409 102.892 142.557 131.394 142.088 137.241C141.619 143.088 145.087 147.512 145.454 155.801C145.821 164.09 142.496 166.936 134.479 177.088C126.463 187.24 125.237 196.544 128.4 208.852C131.561 221.161 179.395 225.54 179.395 225.54C179.395 225.54 204.179 167.387 203.669 155.05C203.159 142.713 205.851 139.528 208.891 135.14C211.93 130.752 213.93 129.237 215.52 125.979C217.111 122.723 214.97 121.638 214.97 121.638Z" fill="#E34955"/>
<path opacity="0.4337" d="M146.74 222.531C136.195 207.978 138.133 193.607 144.082 184.856C150.03 176.105 153.492 163.176 156.126 151.227C158.759 139.279 170.492 122.734 170.492 122.734C170.492 122.734 171.16 122.803 180.264 127.714C189.367 132.624 192.196 146.654 193.413 152.44C194.629 158.227 192.751 186.663 188.8 200.41C184.849 214.157 180.747 220.245 172.372 223.681C163.997 227.119 146.74 222.531 146.74 222.531Z" fill="#762640"/>
<path d="M175.154 193.239C175.154 193.239 174.909 198.983 171.649 206.116C168.39 213.25 166.197 213.626 166.197 213.626C166.197 213.626 170.582 218.118 176.683 221.006C182.784 223.895 198.549 225.271 198.549 225.271C198.549 225.271 197.51 212.186 203.222 199.542C208.933 186.898 213.116 176.285 213.116 176.285L175.154 193.239Z" fill="#E27E5D"/>
<path d="M210.551 182.588L175.155 193.239C175.155 193.239 174.955 197.849 172.572 203.934C173.461 204.522 174.709 205.058 176.46 205.441C181.916 206.634 200.416 194.118 207.927 188.822C208.924 186.489 209.809 184.378 210.551 182.588Z" fill="#BC5945"/>
<path d="M95.175 168.407C95.175 168.407 123.712 147.947 129.137 145.321C134.563 142.697 143.334 138.29 143.334 138.29C143.334 138.29 144.068 134.324 142.498 131.13C140.928 127.935 136.951 122.722 136.951 122.722C136.951 122.722 106.089 134.334 91.9938 138.391C77.899 142.448 66.4766 143.798 63.2729 146.193C60.0705 148.589 59.5803 156.602 65.5571 163.304C71.5339 170.005 87.954 173.42 95.175 168.407Z" fill="#F5AC83"/>
<path d="M107.191 159.903L87.1152 160.716L96.5793 167.408C98.0447 166.36 101.806 163.679 107.191 159.903Z" fill="#E27E5D"/>
<path d="M115.512 181.231L96.7251 164.259L79.2026 147.103C79.2026 147.103 69.4325 145.36 66.5759 144.918C63.7206 144.477 60.293 148.681 60.293 150.197C60.293 151.712 63.5152 169.29 65.6577 173.512C67.7988 177.735 101.578 211.248 101.578 211.248C101.578 211.248 107.269 210.825 110.982 203.125C114.697 195.422 115.512 181.231 115.512 181.231Z" fill="#F5AC83"/>
<path d="M113.269 179.206C107.78 184.077 95.7613 195.125 92.0156 201.665C97.4135 207.108 101.58 211.247 101.58 211.247C101.58 211.247 107.27 210.825 110.982 203.124C114.695 195.422 115.511 181.231 115.511 181.231L113.269 179.206Z" fill="#E27E5D"/>
<path d="M154.846 205.569L114.029 179.354C114.029 179.354 104.952 197.648 100.547 208.736C96.1413 219.825 95.1211 229.71 95.1211 229.71L136.081 241.478C136.081 241.478 144.403 239.44 149.115 230.06C153.826 220.678 154.846 205.569 154.846 205.569Z" fill="#1570EF"/>
<path d="M155.902 100.833C155.902 100.833 152.005 99.9156 150.283 100.147C148.561 100.379 145.074 102.128 143.406 102.097C141.739 102.064 141.475 104.213 143.624 105.416C145.77 106.619 146.505 106.419 148.661 106.26C150.818 106.101 152.621 106.492 152.621 106.492C152.621 106.492 152.984 106.381 154.878 104.731C156.771 103.078 155.902 100.833 155.902 100.833Z" fill="#F5AC83"/>
<path d="M140.583 139.389C140.583 139.389 150.012 137.576 152.151 136.198C154.289 134.82 161.484 123.33 163.368 120.989C165.253 118.649 166.775 116.365 166.467 114.221C166.159 112.076 164.274 108.275 160.052 105.894C155.83 103.513 152.713 103.301 150.919 105.07C149.125 106.839 148.655 109.694 144.504 114.138C140.354 118.583 137.545 120.165 136.876 122.26C136.205 124.356 137.093 127.961 137.093 127.961L140.583 139.389Z" fill="#F5AC83"/>
<path d="M163.387 100.265C163.387 100.265 157.28 98.5688 156.011 99.1315C154.742 99.6941 151.652 103.727 151.164 104.624C150.674 105.521 149.333 108.167 147.584 109.443C145.835 110.719 147.584 112.701 149.397 112.537C151.208 112.374 154.055 108.961 154.055 108.961L156.846 107.33C156.846 107.33 159.727 107.664 160.769 107.839C161.81 108.015 162.472 107.366 163.197 104.973C163.921 102.58 163.387 100.265 163.387 100.265Z" fill="#F5AC83"/>
<path d="M165.233 112.565C165.233 112.565 168.713 101.614 170.941 95.6933C173.17 89.7726 173.713 87.3749 172.264 87.2854C170.814 87.1959 168.495 86.7722 167.317 88.745C166.138 90.7189 160.72 101.866 160.049 106.082C159.378 110.298 159.415 111.26 161.173 112.182C162.932 113.103 165.233 112.565 165.233 112.565Z" fill="#F5AC83"/>
<path d="M147.112 127.537C147.457 124.128 149.359 121.306 151.696 120.083C154.034 118.86 155.756 115.736 155.756 115.736L156.572 111.553C156.572 111.553 155.594 108.927 156.028 107.297C156.462 105.665 158.51 103.138 159.453 102.926C160.396 102.714 160.686 103.53 160.776 105.372C160.867 107.216 160.07 109.979 160.287 112.377C160.504 114.775 160.504 117.792 160.667 120.116C160.831 122.44 159 125.792 156.717 128.442C154.433 131.093 152.296 134.101 149.36 133.971C146.423 133.841 146.495 130.807 147.112 127.537Z" fill="#F5AC83"/>
<path d="M164.001 119.994C164.001 119.994 180.328 104.051 183.318 100.912C186.307 97.7729 184.876 97.2586 181.614 96.9902C178.353 96.7206 167.661 106.785 165.74 108.342C163.819 109.899 162.369 112.37 162.369 112.37L164.001 119.994Z" fill="#F5AC83"/>
<path d="M150.399 106.054C150.248 106 150.756 104.49 151.963 102.925C153.173 101.359 154.403 100.366 154.447 100.407C154.525 100.479 153.398 101.739 152.285 103.174C151.172 104.608 150.499 106.089 150.399 106.054Z" fill="#963021"/>
<path d="M147.152 111.28C147.189 111.263 147.394 111.56 147.957 111.969C148.688 112.502 149.959 112.462 151.221 111.38C151.374 111.245 151.521 111.1 151.666 110.947C152.476 110.092 153 109.331 153.934 108.822C155.348 108.06 156.085 107.603 156.141 107.644C156.198 107.685 155.375 108.36 154.101 109.118C153.253 109.617 152.822 110.331 151.963 111.23C151.811 111.388 151.653 111.541 151.487 111.685C150.122 112.892 148.598 112.808 147.811 112.159C147.228 111.673 147.098 111.305 147.152 111.28Z" fill="#963021"/>
<path d="M146.911 125.791C146.861 125.786 146.938 123.478 149.625 121.692C152.265 119.906 156.191 116.647 156.356 112.097C156.366 111.804 156.349 111.504 156.313 111.2C156.126 109.568 155.513 107.926 156.312 106.425C156.754 105.638 157.175 104.894 157.676 104.186C158.15 103.442 158.738 102.499 159.694 102.579C161.126 102.882 161.078 104.903 160.991 105.852C160.811 108.951 159.88 110.584 159.834 110.563C159.788 110.542 160.607 108.899 160.716 105.84C160.717 104.895 160.743 102.97 159.647 102.917C158.975 102.77 158.539 103.67 157.98 104.398C157.499 105.09 157.09 105.824 156.654 106.613C155.904 107.891 156.544 109.444 156.724 111.153C156.758 111.472 156.774 111.792 156.76 112.112C156.526 116.925 152.373 120.268 149.777 121.923C147.169 123.619 146.96 125.794 146.911 125.791Z" fill="#963021"/>
<path d="M162.08 99.9167C162.199 99.965 161.892 100.865 161.468 101.947C161.048 103.017 160.709 103.898 160.616 103.875C160.492 103.845 160.659 102.899 161.09 101.799C161.519 100.705 161.992 99.8802 162.08 99.9167Z" fill="#963021"/>
<path d="M162.809 117.965C162.733 117.997 161.292 115.347 162.835 111.95C163.15 111.259 163.552 110.626 164.016 110.064C165.553 108.213 166.973 107.159 167.022 107.224C167.072 107.29 165.803 108.422 164.311 110.303C163.877 110.849 163.497 111.456 163.194 112.114C161.877 114.98 162.907 117.925 162.809 117.965Z" fill="#963021"/>
<path d="M162.303 112.398C162.348 112.511 161.755 112.839 160.989 112.391C160.222 111.945 160.068 111.294 160.115 111.261C160.201 111.201 160.662 111.692 161.203 112.042C161.742 112.393 162.266 112.302 162.303 112.398Z" fill="#963021"/>
<path d="M128.998 212.188C129.049 212.166 132.403 217.591 133.544 225.468C134.596 232.732 132.088 239.112 131.835 239.015C131.583 238.918 133.577 232.678 132.529 225.616C131.482 218.555 128.75 212.295 128.998 212.188Z" fill="#14515B"/>
<path d="M122.798 224.3C122.959 224.17 125.408 226.485 127.72 229.975C130.035 233.47 130.998 236.731 130.66 236.847C130.406 236.935 128.998 233.748 126.866 230.542C124.608 227.145 122.521 224.524 122.798 224.3Z" fill="#14515B"/>
<path d="M202.842 223.316C202.842 223.316 238.049 236.626 238.865 237.112C239.681 237.599 226.646 261.603 222.894 268.148C219.14 274.693 218.712 278.29 218.977 291.271C219.242 304.25 221.526 307.022 216.815 309.436C212.103 311.85 204.8 309.831 203.638 310.565C202.475 311.299 201.66 313.851 201.66 313.851C201.66 313.851 178.957 319.377 166.311 320.12C153.664 320.864 136.775 312.383 136.775 312.383C136.775 312.383 136.143 309.464 132.552 308.38C128.962 307.296 128.371 302.662 127.411 299.623C126.452 296.585 127.105 295.062 128.92 291.39C130.736 287.719 134.876 282.064 133.918 276.383C132.959 270.701 130.002 257.281 129.737 252.388C129.472 247.495 130.227 239.628 135.468 233.057C140.711 226.485 146.443 220.178 148.89 214.78C151.337 209.382 153.725 205.757 154.928 205.73C156.131 205.702 166.167 211.1 166.167 211.1C166.167 211.1 180.14 222.969 188.401 223.859C196.661 224.747 202.842 223.316 202.842 223.316Z" fill="#99BDF0"/>
<path d="M170.481 214.68C168.809 225.291 155.59 241.832 148.166 251.203C140.741 260.575 141.333 266.818 143.372 272.784C145.413 278.75 146.208 279.751 148.125 288.481C150.042 297.211 150.532 298.844 151.164 306.353C151.796 313.861 150.797 318.276 150.797 318.276C150.797 318.276 156.04 319.506 164.974 320.258C173.909 321.011 183.924 318.55 183.924 318.55C183.924 318.55 176.295 297.053 175.724 288.185C175.153 279.319 176.662 269.698 182.7 260.262C188.737 250.826 191.716 246.879 194.673 239.361C197.63 231.843 198.488 225.445 198.488 225.445C198.488 225.445 192.368 227.272 183.863 223.545C175.357 219.821 170.481 214.68 170.481 214.68Z" fill="#BDFDEF"/>
<path d="M169.105 210.722C173.328 216.698 179.509 219.617 185.241 221.425C190.972 223.234 198.397 222.049 198.397 222.049L203.925 223.141C203.925 223.141 202.416 225.097 199.581 225.436C196.745 225.775 189.279 227.391 176.919 221.911C164.557 216.431 163.946 209.565 165.027 209.372C166.107 209.18 169.105 210.722 169.105 210.722Z" fill="#1570EF"/>
<path d="M199.194 302.391C198.928 302.42 198.06 296.306 195.986 289.897C193.913 283.488 191.06 278.003 191.295 277.872C191.533 277.739 194.722 282.659 196.962 289.582C199.201 296.503 199.478 302.361 199.194 302.391Z" fill="#14515B"/>
<path d="M196.894 297.938C196.773 297.962 196.627 297.8 196.507 297.536C196.179 297.254 195.798 296.82 195.457 296.339C194.809 295.423 194.453 294.529 194.688 294.363C194.922 294.198 195.653 294.863 196.346 295.874C196.703 296.393 196.986 296.915 197.119 297.293C197.102 297.703 197.017 297.914 196.894 297.938Z" fill="#14515B"/>
<path d="M154.265 307.531C153.997 307.546 153.714 297.898 152.21 287.717C150.707 277.536 146.234 269.377 146.462 269.233C146.689 269.088 151.682 277.257 153.225 287.566C154.769 297.876 154.534 307.515 154.265 307.531Z" fill="#14515B"/>
<path d="M160.439 283.953C160.245 284.046 158.193 280.553 155.693 276.242C153.179 271.908 151.34 268.274 151.649 268.108C151.839 268.006 154.07 271.397 156.581 275.727C159.101 280.074 160.754 283.802 160.439 283.953Z" fill="#14515B"/>
<path d="M200.585 312.437C202.828 311.262 207.428 312.29 208.131 314.97C208.835 317.651 210.446 320.799 209.13 323.117C207.815 325.435 186.468 332.237 168.242 332.403C150.016 332.568 137.49 325.076 135.339 323.051C133.187 321.027 133.962 320.412 133.962 317.508C133.962 314.602 133.983 314.043 134.625 312.665C135.267 311.288 136.277 310.834 138.031 311.573C139.785 312.312 153.145 318.504 166.088 318.059C179.03 317.614 192.013 314.626 195.482 313.845C198.95 313.065 200.585 312.437 200.585 312.437Z" fill="#541447"/>
<path d="M147.543 315.343C147.564 317.893 147.017 325.949 146.995 327.519C146.973 329.089 147.341 329.567 146.216 329.57C145.091 329.572 142.804 329.158 142.408 327.96C142.012 326.762 142.674 316.296 142.659 315.007C142.645 313.719 142.58 313.048 143.935 313.158C145.291 313.268 145.724 313.238 146.777 313.745C147.832 314.252 147.543 315.343 147.543 315.343Z" fill="#280F2D"/>
<path d="M154.241 315.536C153.607 317.191 153.743 325.464 153.556 327.871C153.368 330.28 152.871 331.24 153.701 331.915C154.53 332.591 156.578 332.75 157.213 332.499C157.848 332.249 158.179 331.61 158.179 331.61C158.179 331.61 157.819 331.308 157.825 328.54C157.832 325.772 158.885 318.713 158.979 317.798C159.073 316.882 159.679 316.275 158.525 315.675C157.372 315.075 154.486 315.179 154.241 315.536Z" fill="#280F2D"/>
<path d="M166.387 314.83H179.772C182.306 314.83 184.348 316.871 184.348 319.406V329.35C184.348 331.885 182.308 333.927 179.772 333.927H166.387C163.852 333.927 161.811 331.886 161.811 329.35V319.406C161.812 316.871 163.852 314.83 166.387 314.83Z" fill="#FF831F"/>
<path d="M166.391 316.673C164.841 316.673 163.652 317.856 163.652 319.402V329.349C163.652 330.894 164.846 332.087 166.391 332.087H179.77C181.315 332.087 182.509 330.894 182.509 329.349V319.402C182.509 317.857 181.321 316.673 179.77 316.673H166.391Z" fill="#FFBB85"/>
<path d="M187.549 315.1C188.804 316.193 189.489 328.617 189.273 329.769C189.057 330.921 189.367 331.372 190.391 331.392C191.415 331.411 193.131 330.915 193.319 329.954C193.507 328.993 192.071 316.025 191.53 314.899C190.99 313.772 189.295 314.106 188.667 314.106C188.039 314.108 187.549 315.1 187.549 315.1Z" fill="#280F2D"/>
<path d="M197.213 313.078C198.237 313.656 198.656 315.217 198.786 316.265C198.915 317.313 200.214 326.442 200.279 327.107C200.344 327.772 200.019 328.19 200.358 328.383C200.697 328.575 202.392 328.349 202.897 327.572C203.402 326.793 203.416 326.842 203.381 324.97C203.345 323.097 201.361 313.049 200.228 312.345C199.096 311.641 197.213 313.078 197.213 313.078Z" fill="#280F2D"/>
<path d="M167.996 131.412C166.997 136.901 162.264 145.318 158.736 151.992C155.207 158.666 155.023 171.645 159.817 182.32C164.611 192.995 164.12 193.574 170.709 195.612C177.298 197.65 185.977 195.372 194.646 192.408C203.315 189.443 213.956 181.565 213.956 181.565C213.956 181.565 218.523 171.784 219.726 168.011C220.929 164.239 219.359 161.246 216.606 161.356C213.852 161.466 210.874 164.403 210.874 164.403C210.874 164.403 206.855 153.095 207.079 145.879C207.303 138.665 208.69 134.982 208.69 134.982C208.69 134.982 198.022 134.725 190.944 132.192C183.866 129.659 176.38 125.602 174.952 125.161C173.524 124.719 172.748 124.39 171.953 126.243C171.157 128.098 167.996 131.412 167.996 131.412Z" fill="#F5AC83"/>
<path d="M173.422 154.369C173.422 154.369 173.422 154.369 173.422 154.365C173.422 154.339 173.407 154.233 173.227 154.034C173.187 153.879 173.157 153.671 173.126 153.419C173.076 152.991 173.019 152.321 172.872 151.674C172.614 150.564 171.849 149.187 170.588 148.746C170.57 148.737 170.553 148.728 170.535 148.72C169.489 148.227 168.098 148.917 167.318 149.66C166.818 150.151 166.364 150.743 166.072 151.099C165.888 151.326 165.736 151.503 165.607 151.623C165.447 151.77 165.338 151.832 165.244 151.796C165.151 151.76 165.101 151.636 165.086 151.407C165.076 151.221 165.098 150.973 165.165 150.67C165.279 150.148 165.537 149.409 166.044 148.639C166.949 147.273 168.953 146.055 171.247 146.79C171.286 146.802 171.323 146.816 171.361 146.829C173.557 147.782 174.451 149.895 174.45 151.525C174.445 152.39 174.264 153.095 174.078 153.558C173.97 153.83 173.856 154.033 173.752 154.168C173.507 154.261 173.439 154.343 173.426 154.365C173.422 154.37 173.422 154.369 173.422 154.369Z" fill="#692A2F"/>
<path d="M201.012 163.646C201.012 163.646 201.011 163.648 200.971 163.622C200.768 163.418 200.985 162.455 200.826 161.034C200.702 159.885 199.97 158.51 198.612 157.783C198.522 157.726 198.428 157.676 198.331 157.632C197.148 157.101 195.614 157.578 194.627 158.229C193.986 158.663 193.393 159.197 193.01 159.524C192.775 159.728 192.581 159.886 192.425 159.989C192.233 160.113 192.112 160.159 192.027 160.106C191.943 160.053 191.92 159.917 191.956 159.679C191.986 159.486 192.064 159.232 192.198 158.93C192.433 158.404 192.866 157.679 193.564 156.974C194.755 155.775 196.895 154.911 199.096 155.748C199.272 155.816 199.446 155.893 199.618 155.982C201.727 157.189 202.517 159.369 202.355 161.053C202.151 162.902 201.283 163.686 201.057 163.665C201.012 163.648 201.012 163.646 201.012 163.646Z" fill="#692A2F"/>
<path d="M176.045 160.913C179.36 161.362 181.788 162.221 182.715 163.245C183.643 164.268 182.114 165.939 179.778 166.871C177.442 167.803 175.535 165.206 175.208 163.856C174.883 162.506 175.077 160.775 176.045 160.913Z" fill="#D56356"/>
<path d="M166.362 168.769C167.997 168.184 173.66 171.917 178.545 173.014C183.43 174.111 184.9 173.716 186.103 174.791C187.306 175.865 185.073 180.023 182.544 182.189C180.015 184.355 172.488 183.7 169.133 181.615C165.777 179.531 164.289 176.383 164.808 172.634C165.326 168.884 166.362 168.769 166.362 168.769Z" fill="#661F28"/>
<path d="M175.927 178.662C171.784 178.662 169.62 180.392 168.732 181.358C168.862 181.446 168.995 181.531 169.131 181.614C172.486 183.698 180.012 184.355 182.541 182.189C183.068 181.737 183.584 181.198 184.058 180.618C182.749 179.836 180.448 178.889 176.804 178.685C176.503 178.669 176.21 178.662 175.927 178.662Z" fill="#FFA6B1"/>
<path d="M167.333 168.769C166.914 169.439 166.388 170.457 166.605 171.054C166.951 172.001 178.91 176.115 181.478 176.579C183.196 176.889 184.209 175.23 184.692 174.097C183.538 173.815 181.8 173.748 178.543 173.016C174.379 172.08 169.65 169.227 167.333 168.769Z" fill="white"/>
<path d="M168.227 141.455C170.881 140.599 173.439 141.37 174.772 142.592C176.106 143.813 177.015 145.032 177.908 145.979C178.8 146.927 179.982 146.303 180.409 145.145C180.835 143.987 180.631 142.119 178.933 140.603C177.234 139.087 174.95 137.918 172.586 137.872C170.222 137.826 168.216 137.687 167.456 138.227C166.695 138.768 166.52 140.303 166.555 140.764C166.592 141.227 167.131 141.909 168.227 141.455Z" fill="#BC343E"/>
<path d="M193.848 145.464C192.405 147.18 192.196 148.678 193.903 149.088C195.611 149.497 197.457 149.441 199.497 150.171C201.538 150.903 203.141 151.614 204.072 152.902C205.004 154.19 205.548 155.561 206.561 155.446C207.573 155.331 209.195 153.826 208.765 152.266C208.336 150.707 206.342 148.634 202.767 146.769C199.191 144.905 194.545 144.399 193.848 145.464Z" fill="#BC343E"/>
<path d="M212.483 121.65C212.483 121.65 218.907 119.18 223.11 122.715C227.313 126.25 225.496 129.819 231.616 140.284C237.736 150.748 239.265 146.351 240.183 156.806C241.102 167.261 237.136 171.488 236.871 187.441C236.606 203.395 238.829 212.336 238.278 222.083C237.727 231.831 233.832 233.172 229.65 234.448C225.469 235.724 222.592 230.73 222.592 230.73C222.592 230.73 217.186 239.661 217.31 248.226C217.431 256.79 208.927 261.719 203.521 257.029C198.115 252.339 196.912 246.959 196.606 242.288C196.3 237.616 196.871 232.989 196.871 232.989C196.871 232.989 193.953 237.275 190.813 235.293C187.672 233.311 185.774 229.722 189.161 221.249C192.548 212.776 198.742 199.971 204.371 191.582C210.001 183.192 211.701 174.462 211.701 174.462C211.701 174.462 204.803 155.633 205.559 145.591C206.311 135.548 212.483 121.65 212.483 121.65Z" fill="#BC343E"/>
<path d="M268.928 249.563L241.187 273.888L240.494 286.592L209.897 298.066C209.897 298.066 202.064 281.525 201.616 277.284C201.167 273.043 207.246 265.167 207.246 265.167C207.246 265.167 253.594 206.31 259.303 201.803C265.011 197.297 268.928 249.563 268.928 249.563Z" fill="#898DA9"/>
<path d="M221.631 269.133C221.68 269.342 226.335 268.49 231.413 269.351C231.474 269.362 231.535 269.374 231.596 269.384C234.406 269.904 236.524 270.685 238.1 271.847C239.526 272.899 240.06 273.883 240.155 273.83C240.252 273.777 239.884 272.652 238.462 271.4C236.908 270.032 234.626 269.052 231.742 268.563C231.678 268.552 231.616 268.542 231.554 268.532C225.908 267.576 221.566 268.861 221.631 269.133Z" fill="#3B3B5F"/>
<path d="M374.436 352.302C370.795 365.852 366.266 390.712 365.516 396.709C364.766 402.707 355.403 506.496 354.278 519.814C353.153 533.133 348.134 633.843 348.134 633.843C348.134 633.843 343.633 637.258 330.018 638.14C316.403 639.023 308.065 633.778 308.065 633.778C308.065 633.778 309.179 535.231 309.958 517.992C310.737 500.754 311.903 411.003 311.903 411.003L308.211 410.938C308.211 410.938 293.392 493.643 290.508 505.975C287.624 518.308 270.011 635.302 270.011 635.302C270.011 635.302 264.992 642.624 251.346 642.066C237.702 641.508 229.711 634.471 229.711 634.471C229.711 634.471 244.245 511.525 244.504 500.867C244.764 490.21 253.627 387.572 254.204 378.446C254.781 369.32 258.329 358.234 258.329 358.234C258.329 358.234 352.198 351.055 360.736 349.692C369.274 348.329 374.436 352.302 374.436 352.302Z" fill="#336C8B"/>
<path d="M265.05 362.285L267.57 364.248L234.726 637.703C233.581 637.107 232.687 636.56 231.927 636.063L265.05 362.285Z" fill="#184260"/>
<path d="M362.734 364.228L344.173 635.565L341.122 636.626L359.731 363.906L362.734 364.228Z" fill="#184260"/>
<path d="M360.17 389.896C360.17 389.896 351.395 392.058 347.075 385.767C342.756 379.476 344.2 371.31 344.2 371.31L340.632 371.24C340.632 371.24 339.767 381.324 345.35 387.305C350.935 393.286 359.641 393.295 359.641 393.295L361.088 388.898L360.17 389.896Z" fill="#184260"/>
<path d="M287.061 368.051C287.061 368.051 287.061 381.099 279.84 385.291C272.617 389.483 264.249 385.343 264.249 385.343L264.282 382.374C264.282 382.374 271.712 385.872 278.686 382.621C285.657 379.371 284.727 367.946 284.727 367.946L287.061 368.051Z" fill="#184260"/>
<path d="M363.776 349.413C370.484 349.26 374.438 352.304 374.438 352.304C373.562 355.563 372.634 359.492 371.72 363.639C363.194 368.036 345.002 374.942 316.541 373.552C291.398 372.324 270.148 366.095 257.399 361.429C257.933 359.504 258.328 358.236 258.328 358.236C258.328 358.236 352.196 351.056 360.735 349.694C361.801 349.521 362.816 349.434 363.776 349.413Z" fill="#184260"/>
<path d="M319.527 371.94L317.223 395.113L312.071 395.948L309.839 410.2L307.224 410.011L310.253 395.716L312.889 393.538L313.633 371.374L319.527 371.94Z" fill="#184260"/>
<path d="M374.436 352.302C374.436 352.302 347.089 366.868 322.194 368.841C297.3 370.813 271.135 361.415 271.135 361.415C271.135 361.415 289.885 291.365 286.163 267.389C282.442 243.413 278.807 204.624 278.807 204.624L334.594 201.221C334.594 201.221 341.578 246.735 344.578 273.386C347.579 300.037 374.436 352.302 374.436 352.302Z" fill="#FFBD79"/>
<path d="M371.539 346.483C373.309 350.101 374.438 352.304 374.438 352.304C374.438 352.304 347.091 366.869 322.195 368.842C297.3 370.815 271.135 361.416 271.135 361.416C271.135 361.416 271.555 359.834 272.21 357.275C283.722 361.446 298.893 365.617 314.421 366.074C343.825 366.937 367.847 349.333 371.539 346.483Z" fill="#E5763B"/>
<path d="M330.379 208.288C330.379 208.288 326.001 213.849 312.075 214.663C298.148 215.476 291.073 209.535 291.073 209.535L291.478 200.888L328.898 199.54L330.379 208.288Z" fill="#FFE2C4"/>
<path d="M292.162 168.229C292.162 168.229 294.44 181.067 294.325 186.331C294.21 191.595 281.445 194.614 281.445 194.614C281.445 194.614 282.599 202.421 292.595 207.193C302.59 211.964 314.72 211.158 319.812 209.653C324.904 208.147 334.596 201.221 334.596 201.221C334.596 201.221 325.956 193.322 325.019 190.408C324.081 187.493 325.465 172.014 325.465 172.014L292.162 168.229Z" fill="#E6737A"/>
<path opacity="0.4782" d="M292.162 168.229L325.465 172.011C325.465 172.011 325.03 176.874 324.813 181.661C321.69 184.968 317.075 188.903 312.321 189.551C305.805 190.44 298.103 184.007 293.801 179.195C293.159 173.861 292.162 168.229 292.162 168.229Z" fill="#BF3649"/>
<path d="M362.05 382.83C362.05 382.83 346.732 334.63 338.337 314.106C329.942 293.583 333.029 285.249 332.25 275.384C331.471 265.518 326.92 207.962 326.775 203.353C326.631 198.744 324.583 189.202 324.583 189.202L325.016 186.359C325.016 186.359 340.42 193.11 348.67 193.512C356.921 193.915 363.988 196.031 363.988 196.031C363.988 196.031 363.875 258.583 367.279 280.989C370.683 303.396 372.702 317.999 372.702 317.999C372.702 317.999 383.311 340.474 393.725 355.273C404.139 370.071 409.734 377.717 410.658 381.443C411.581 385.169 417.841 394.425 410.947 389.699C404.052 384.974 401.081 380.586 385.244 381.002C369.407 381.418 362.05 382.83 362.05 382.83Z" fill="#656B91"/>
<path d="M296.092 192.569C296.092 192.569 294.707 206.017 295.918 222.517C297.129 239.017 304.476 280.886 304.418 292.193C304.361 303.501 301.822 322.414 295.677 340.64C289.533 358.866 280.33 386.413 280.33 386.413C280.33 386.413 269.974 385.258 255.262 381.169C240.55 377.08 232.502 373.523 232.502 373.523C232.502 373.523 262.07 331.735 266.195 317.884C270.32 304.033 271.388 299.685 271.388 299.685L262.099 245.708L259.3 201.804C259.3 201.804 271.303 192.614 278.515 190.447C285.727 188.279 296.025 185.76 296.025 185.76L296.092 192.569Z" fill="#656B91"/>
<path d="M357.473 239.773L359.134 241.434C359.134 241.434 366.874 316.93 367.454 318.721C367.993 320.384 399.082 376.304 403.703 384.614C402.631 383.978 401.486 383.399 400.189 382.901L365.376 319.189L357.473 239.773Z" fill="#424264"/>
<path d="M358.076 231.631L358.047 234.018L329.053 234.52C328.991 233.719 328.946 233.095 328.885 232.304L358.076 231.631Z" fill="#424264"/>
<path d="M263.269 252.504L263.739 252.53L275.346 299.682L240.889 376.702C240.232 376.475 239.61 376.252 239.029 376.043L260.086 330.829C263.002 325.619 265.259 321.027 266.196 317.883C266.25 317.7 266.276 317.602 266.331 317.422L273.96 301.044L266.266 269.916L263.269 252.504Z" fill="#424264"/>
<path d="M329.891 244.988C329.891 244.988 329.382 215.834 330.197 210.088C331.013 204.342 329.993 195.777 333.134 195.887C336.276 195.997 334.726 197.457 340.987 199.394C347.249 201.331 351.452 202.671 351.023 200.845C350.595 199.018 343.863 194.942 340.375 189.068C336.887 183.193 337.153 182.532 334.726 180.072C332.298 177.612 324.975 177.411 324.975 177.411C324.975 177.411 323.534 184.282 324.582 189.204C325.629 194.125 325.833 201.708 326.914 210.795C327.995 219.883 329.096 238.345 329.096 238.345L329.891 244.988Z" fill="#AAC3E0"/>
<path d="M297.018 232.926C297.134 233.872 297.256 234.842 297.385 235.834L261.707 239.54L261.562 237.257L297.018 232.926Z" fill="#424264"/>
<path d="M298.582 242.178C298.582 242.178 296.053 220.029 295.89 210.987C295.727 201.946 296.226 189.924 296.028 185.76C295.829 181.596 293.374 176.08 293.374 176.08C293.374 176.08 288.425 180.806 284.1 183.349C279.776 185.891 277.154 188.161 277.98 196.393C278.808 204.623 274.533 209.877 274.533 209.877C274.533 209.877 277.653 208.215 282.243 205.893C286.832 203.57 285.384 199.431 288.954 208.059C292.523 216.687 292.217 212.988 294.032 224.637C295.849 236.286 298.582 242.178 298.582 242.178Z" fill="#AAC3E0"/>
<path d="M279.66 140.201C279.66 140.201 276.17 139 275.678 136.092C275.188 133.184 276.861 131.484 276.472 126.35C276.082 121.215 273.774 120.949 275.087 115.725C276.4 110.499 278.246 109.449 281.13 108.618C284.015 107.787 284.463 107.91 284.463 107.91C284.463 107.91 283.628 100.99 287.855 95.1033C292.081 89.2166 292.716 91.4425 296.537 85.4974C300.359 79.5524 300.994 79.4941 304.094 79.5775C307.195 79.6623 308.393 81.4272 307.974 84.0108C307.555 86.5945 307.555 88.2811 307.555 88.2811C307.555 88.2811 312.505 86.4262 318.621 85.7637C324.737 85.1013 324.895 86.6462 329.972 87.7949C335.049 88.9436 335.106 88.2493 338.727 87.983C342.347 87.7167 343.055 91.877 342.866 94.5455C342.678 97.2126 342.188 98.5508 342.188 98.5508C342.188 98.5508 344.164 93.9612 348.217 94.3772C352.27 94.7933 356.149 101.296 354.217 107.306C352.284 113.316 348.376 117.51 348.376 117.51C348.376 117.51 351.067 118.067 351.961 122.91C352.855 127.753 352.422 130.31 350.071 131.757C347.721 133.204 348.383 132.491 348.442 136.923C348.499 141.356 343.509 143.94 343.509 143.94C343.509 143.94 337.726 145.147 331.796 146.185C325.869 147.224 316.393 147.717 307.493 146.407C298.597 145.095 279.66 140.201 279.66 140.201Z" fill="#6F1D5D"/>
<path d="M300.356 106.059L300.307 111.364C300.307 111.364 300.979 113.166 304.018 115.644C307.056 118.123 318.828 123.527 329.29 121.576C339.752 119.624 341.616 111.625 341.616 111.625C341.616 111.625 342.135 112.951 340.956 116.566C339.777 120.179 337.719 120.492 337.719 120.492C337.719 120.492 340.678 122.445 342.082 128.618C342.998 132.643 343.148 133.643 343.141 133.855C343.376 133.829 346.179 133.546 348.363 134.8C348.394 135.342 348.433 136.003 348.445 136.925C348.502 141.358 343.512 143.941 343.512 143.941C343.512 143.941 337.727 145.149 331.799 146.186C325.872 147.225 316.394 147.718 307.495 146.406C298.595 145.095 279.657 140.2 279.657 140.2C279.657 140.2 276.168 139.001 275.677 136.093C275.187 133.185 276.862 131.484 276.472 126.351C276.083 121.217 273.775 120.95 275.088 115.725C275.096 115.694 275.104 115.669 275.112 115.64C275.549 116.567 276.217 117.789 277.298 119.542C281.311 126.045 278.601 130.887 278.601 130.887C278.601 130.887 279.233 132.844 282.568 132.256C285.903 131.668 285.234 129.79 285.234 129.79C285.234 129.79 287.306 131.465 289.351 127.23C291.395 122.996 289.308 122.932 290.815 118.344C292.321 113.756 292.641 116.942 296.508 114.198C300.378 111.454 300.356 106.059 300.356 106.059Z" fill="#4D1040"/>
<path d="M305.656 180.608C305.656 180.608 310.315 181.147 314.037 181.036C317.758 180.926 330.508 172.513 333.393 165.452C335.242 160.925 339.754 138.334 339.955 134.718C340.157 131.102 335.008 121.989 335.008 121.989C335.008 121.989 326.843 125.767 315.954 123.716C305.064 121.665 299.626 115.343 299.626 115.343C299.626 115.343 298.646 117.719 295.833 119.49C293.02 121.262 292.861 120.749 292.444 126.293C292.025 131.836 290.915 134.938 288.68 135.704C286.444 136.47 285.492 134.678 285.492 134.678C285.492 134.678 287.372 152.917 288.166 161.218C288.958 169.522 300.81 179.647 305.656 180.608Z" fill="#FF9D9C"/>
<path d="M286.316 136.99C286.316 136.99 283.446 134.601 281.427 134.498C279.407 134.395 277.215 137.147 277.893 140.45C278.571 143.754 279.941 150.277 283.186 151.49C286.431 152.704 288.205 149.737 288.205 149.737L286.316 136.99Z" fill="#FF9D9C"/>
<path d="M338.415 138.757C338.415 138.757 339.309 136.394 343.247 136.368C347.184 136.341 348.497 144.274 345.771 148.525C343.044 152.777 340.549 155.731 338.559 155.568C336.569 155.406 335.704 153.199 335.704 153.199L338.415 138.757Z" fill="#FF9D9C"/>
<path d="M326.68 139.308C325.33 139.308 324.236 141.498 324.236 144.198C324.236 146.898 325.33 149.088 326.68 149.088C328.031 149.088 329.125 146.898 329.125 144.198C329.125 141.498 328.032 139.308 326.68 139.308Z" fill="#31152B"/>
<path d="M298.466 138.417C297.116 138.417 296.021 140.608 296.021 143.308C296.021 146.009 297.116 148.198 298.466 148.198C299.816 148.198 300.91 146.008 300.91 143.308C300.91 140.608 299.816 138.417 298.466 138.417Z" fill="#31152B"/>
<path d="M316.744 153.779C315.605 155.389 314.271 156.674 312.721 156.518C311.17 156.361 308.444 154.168 308.689 153.204C308.934 152.241 312.114 152.181 314.602 152.341C317.09 152.5 317.452 152.851 316.744 153.779Z" fill="#DF6274"/>
<path d="M320.33 161.89C319.789 164.129 318.665 169.046 316.522 171.039C314.38 173.031 311.763 172.772 309.685 172.649C307.608 172.525 303.815 170.049 302.928 166.061C302.04 162.073 301.709 161.07 302.669 160.835C303.628 160.602 308.567 161.133 311.95 161.355C315.332 161.576 318.094 161.585 319.14 161.315C320.186 161.046 320.33 161.89 320.33 161.89Z" fill="#902B39"/>
<path d="M303.804 160.782C305.703 160.819 309.301 161.181 311.95 161.355C315.333 161.576 318.094 161.585 319.139 161.315C319.195 161.3 319.247 161.29 319.297 161.282C319.282 162.142 319.13 163.082 318.577 163.465C317.453 164.247 305.956 164.542 304.701 163.351C304.067 162.748 303.856 161.686 303.804 160.782Z" fill="white"/>
<path d="M309.63 166.957C309.866 166.957 310.104 166.967 310.349 166.983C313.933 167.211 315.674 169.64 316.412 171.137C314.291 173.021 311.728 172.769 309.687 172.649C308.072 172.553 305.415 171.035 303.898 168.487C305.219 167.73 307.173 166.951 309.63 166.957Z" fill="#FFD0D9"/>
<path d="M332.156 135.49C330.555 134.432 327.786 134.095 326.4 134.51C325.016 134.926 322.716 136.055 322.109 135.75C321.503 135.445 320.494 133.502 321.489 132.352C322.484 131.203 325.693 130.368 328.332 130.56C330.971 130.752 332.688 131.485 333.258 131.942C333.828 132.399 334.088 132.829 333.929 133.496C333.77 134.165 333.575 135.236 333.114 135.402C332.654 135.567 332.156 135.49 332.156 135.49Z" fill="#6F1D5D"/>
<path d="M305.277 131.583C305.248 132.989 305.501 134.503 304.701 134.893C303.9 135.282 301.001 134.046 299.162 133.744C297.323 133.442 294.525 134.747 293.277 135.367C292.029 135.987 291.258 135.64 291.084 134.014C290.911 132.389 290.636 130.909 292.173 130.295C293.71 129.682 295.722 129.263 299.328 129.131C302.933 128.997 305.133 129.617 305.277 131.583Z" fill="#6F1D5D"/>
<path d="M363.988 196.031C363.988 196.031 419.016 222.023 421.016 226.227C423.015 230.431 425.299 239.867 424.035 243.539C422.77 247.21 412.164 252.902 408.533 253.452C404.903 254.003 358.885 242.877 358.885 242.877C358.885 242.877 353.5 229.053 353.581 217.322C353.66 205.592 363.988 196.031 363.988 196.031Z" fill="#898DA9"/>
<path d="M390.474 248.262C390.635 248.115 389.215 246.361 388.433 244.241C387.651 242.121 388.099 240.091 387.893 240.021C387.621 239.928 386.745 241.947 387.657 244.522C388.578 247.125 390.374 248.352 390.474 248.262Z" fill="#3B3B5F"/>
<path d="M382.869 241.924L367.285 171.354L383.644 165.04C383.644 165.04 414.649 210.587 419.3 219.564C423.95 228.542 423.624 233.774 421.34 238.032C419.056 242.292 406.531 243.54 400.738 244.421C394.944 245.301 382.869 241.924 382.869 241.924Z" fill="#FF9D9C"/>
<path d="M367.285 171.354C367.285 171.354 360.098 166.49 358.935 163.333C357.772 160.176 354.875 152.492 354.916 149.702C354.958 146.912 354.508 140.238 354.447 138.641C354.387 137.045 354.304 132.647 352.795 130.28C351.286 127.912 356.039 129.738 357.732 131.188C359.425 132.639 360.241 135.283 360.037 138.192C359.833 141.102 361.138 143.24 362.71 143.773C364.28 144.305 364.974 143.838 364.974 143.838C364.974 143.838 366.585 137.706 368.238 134.586C369.89 131.465 371.236 131.033 377.743 133.006C384.25 134.979 388.044 139.606 389.451 141.644C390.858 143.681 391.451 145.132 390.654 147.509C389.859 149.886 383.644 165.04 383.644 165.04C383.644 165.04 383.753 170.514 375.519 170.934C367.285 171.354 367.285 171.354 367.285 171.354Z" fill="#FF9D9C"/>
<path d="M368.692 134.585C368.692 134.585 375.831 107.378 377.483 106.891C379.135 106.405 381.236 109.471 381.195 110.481C381.154 111.49 377.871 130.372 377.871 130.372L380.155 129.426C380.155 129.426 387.723 107.065 389.721 106.34C391.721 105.615 393.801 108.855 393.638 109.7C393.475 110.546 384.887 132.538 384.887 132.538L394.902 111.077C394.902 111.077 398.797 111.058 398.187 114.501C397.574 117.943 389.313 136.577 389.313 136.577C389.313 136.577 398.187 120.1 400.084 120.1C401.981 120.1 404.387 122.734 402.817 124.414C401.247 126.094 390.681 147.123 390.681 147.123C390.681 147.123 387.478 148.362 379.135 145.242C370.793 142.122 368.692 134.585 368.692 134.585Z" fill="#FF9D9C"/>
<path d="M421.124 216.142C421.124 216.142 427.231 230.67 427.326 236.024C427.42 241.378 423.889 249.187 418.277 251.995C412.664 254.802 407.746 255.596 401.943 254.233C396.14 252.868 387.065 249.863 384.671 246.931C382.277 243.999 380.471 235.178 380.471 235.178C380.471 235.178 401.904 227.557 408.433 224.392C414.959 221.227 421.124 216.142 421.124 216.142Z" fill="#898DA9"/>
<path opacity="0.4782" d="M374.812 205.431C381.515 207.996 396.512 212.434 412.614 208.58C413.389 209.791 414.145 210.978 414.824 212.061C414.526 212.725 414.168 213.423 413.73 214.124C411.667 217.417 407.703 217.641 393.172 221.435C386.696 223.125 381.808 222.642 378.378 221.587L374.812 205.431Z" fill="#BF3649"/>
<path d="M376.955 213.78C384.788 219.27 397.639 215.653 404.574 213.322C411.509 210.99 411.754 205.758 411.754 205.758C411.754 205.758 415.955 203.407 418.2 208.181C420.444 212.955 424.115 214.037 426.237 219.123C428.358 224.208 429.256 230.302 417.507 234.709C405.757 239.115 383.33 238.995 378.887 239.339C374.444 239.683 374.805 235.581 374.618 230.92C374.431 226.26 372.959 227.084 372.498 223.112C372.037 219.14 371.344 217.77 372.686 215.797C374.026 213.823 376.955 213.78 376.955 213.78Z" fill="#424264"/>
<path d="M214.865 308.24C214.865 308.24 243.683 351.791 246.337 353.401C248.99 355.011 266.761 357.257 269.991 356.231C273.222 355.206 277.146 352.505 279.425 344.353C281.703 336.2 281.358 332.423 278.876 331.319C276.396 330.216 259.059 336.071 256.923 334.629C254.788 333.188 241.173 295.791 241.173 295.791C241.173 295.791 239.744 291.38 226.893 293.504C214.042 295.628 214.865 308.24 214.865 308.24Z" fill="#FF9D9C"/>
<path d="M276.182 331.46C276.182 331.46 281.305 330.02 283.937 329.932C286.568 329.845 293.985 331.19 295.709 332.071C297.433 332.952 299.365 335.133 302.628 336.697C305.891 338.262 305.32 340.603 303.618 341.017C301.915 341.43 299.212 340.411 297.732 339.428C296.254 338.446 290.603 337.813 290.603 337.813L278.353 337.102C278.353 337.102 276.528 337.098 276.079 335.161C275.632 333.223 276.182 331.46 276.182 331.46Z" fill="#FF9D9C"/>
<path d="M268.334 356.452C268.334 356.452 276.411 357.035 278.043 357.715C279.676 358.395 284.305 359.79 285.733 360.703C287.162 361.616 289.661 363.43 290.996 362.718C292.332 362.007 292.628 361.198 291.975 360.06C291.322 358.922 286.294 354.805 284.632 354.003C282.97 353.2 279.033 351.657 277.635 351.249C276.238 350.841 272.811 350.014 272.811 350.014C272.811 350.014 271.873 349.45 269.843 351.369C267.813 353.284 268.334 356.452 268.334 356.452Z" fill="#FF9D9C"/>
<path d="M272.811 350.013C272.811 350.013 277.85 349.467 280.001 349.489C282.153 349.512 287.049 350.825 288.273 351.146C289.497 351.466 294.015 353.826 295.514 354.033C297.014 354.239 298.197 352.917 298.043 351.766C297.891 350.614 290.649 346.153 289.159 345.373C287.67 344.592 279.307 342.527 278.124 342.325C276.941 342.124 272.127 342.761 272.127 342.761C272.127 342.761 271.322 344.345 271.066 346.906C270.812 349.466 272.811 350.013 272.811 350.013Z" fill="#FF9D9C"/>
<path d="M274.566 336.189C274.566 336.189 279.42 335.859 281.226 335.638C283.032 335.418 290.783 337.107 292.833 338.713C294.882 340.319 299.34 343.638 300.798 343.964C302.257 344.289 301.217 346.571 298.758 346.621C296.3 346.672 292.588 344.785 291.313 344.511C290.038 344.235 280.584 341.629 279.533 341.799C278.482 341.968 274.046 342.35 274.046 342.35C274.046 342.35 272.863 339.999 273.169 338.522C273.475 337.045 274.261 336.521 274.261 336.521L274.566 336.189Z" fill="#FF9D9C"/>
<path d="M275.524 335.791C275.568 335.914 279.456 334.731 283.781 335.469C288.106 336.207 291.755 338.259 291.818 338.145C291.841 338.104 288.682 335.791 283.863 334.979C279.1 334.175 275.454 335.587 275.524 335.791Z" fill="#A42537"/>
<path opacity="0.4782" d="M232.984 292.926C240.23 292.878 241.174 295.79 241.174 295.79C241.174 295.79 241.532 296.768 242.041 298.153C229.365 305.993 222.783 314.707 220.953 317.372C217.429 312.104 214.864 308.24 214.864 308.24C214.864 308.24 214.041 295.626 226.892 293.502C229.302 293.105 231.312 292.936 232.984 292.926Z" fill="#BF3649"/>
<path d="M241.173 295.791C244.736 293.921 245.082 290.676 245.082 287.275C245.082 283.874 244.996 282.875 244.881 280.233C244.765 277.591 237.106 276.189 229.982 277.747C222.856 279.306 216.986 282.739 214.549 283.965C212.111 285.192 211.145 286.458 211.145 286.458L214.044 295.629L206.183 287.087C206.183 287.087 201.799 290.183 199.895 294.331C197.991 298.478 198.669 301.814 198.726 302.45C198.783 303.086 201.25 302.846 204.25 305.942C207.249 309.039 208.592 308.727 210.625 308.999C212.659 309.272 214.867 308.24 214.867 308.24C214.867 308.24 219.064 300.685 226.449 297.933C233.832 295.18 241.173 295.791 241.173 295.791Z" fill="#424264"/>
</g>
<defs>
<clipPath id="clip0_2359_3456">
<rect width="500" height="500" fill="white"/>
</clipPath>
</defs>
</svg>
